# xmcd
#
# Track frame offsets:
#	150
#	17559
#	30738
#	50758
#	69319
#	82614
#	98929
#	116603
#	131553
#	150952
#
# Disc length: 2247 seconds
#
# Revision: 0
# Processed by: cddbd v1.5.2PL0 Copyright (c) Steve Scherf et al.
# Submitted via: EasyCDDAExtractor 12.0.1.1
#
DISCID=7008c50a
DTITLE=Jay Leighton - As the Sun Comes Up
DYEAR=1900
DGENRE=
TTITLE0=As the Sun Comes Up
TTITLE1=Happiness and Good Intentions
TTITLE2=Icarus and Me
TTITLE3=This is the Time
TTITLE4=Flotsam
TTITLE5=The Storm
TTITLE6=The Sea
TTITLE7=The Ones We'll Never Know
TTITLE8=A Thousand
TTITLE9=Avalanche
EXTD=
EXTT0=
EXTT1=
EXTT2=
EXTT3=
EXTT4=
EXTT5=
EXTT6=
EXTT7=
EXTT8=
EXTT9=
PLAYORDER=
